<?xml version="1.0" standalone="no"?>
<!DOCTYPE svg PUBLIC "-//W3C//DTD SVG 20010904//EN"
 "http://www.w3.org/TR/2001/REC-SVG-20010904/DTD/svg10.dtd">
<svg version="1.0" xmlns="http://www.w3.org/2000/svg"
 width="301.000000pt" height="167.000000pt" viewBox="0 0 301.000000 167.000000"
 preserveAspectRatio="xMidYMid meet">
<metadata>
Created by potrace 1.16, written by Peter Selinger 2001-2019
</metadata>
<g transform="translate(0.000000,167.000000) scale(0.100000,-0.100000)"
fill="#000000" stroke="none">
<path d="M2280 1268 c-65 -113 -174 -190 -420 -297 -166 -72 -272 -169 -302
-275 -28 -103 -3 -226 67 -327 20 -30 34 -45 30 -34 -39 108 -47 139 -52 196
-8 91 14 155 72 208 55 50 99 73 242 122 209 72 279 123 337 242 28 57 72 215
63 223 -1 1 -18 -25 -37 -58z"/>
<path d="M690 1305 c0 -88 67 -243 132 -306 59 -57 106 -82 243 -129 206 -71
268 -110 309 -192 37 -73 36 -163 -3 -277 -23 -68 -25 -79 -9 -60 10 13 35 58
56 98 34 70 37 81 36 160 -1 102 -21 157 -84 225 -56 61 -113 96 -280 171
-222 101 -305 164 -374 285 -17 30 -26 38 -26 25z"/>
<path d="M1299 1246 c-85 -18 -129 -41 -129 -66 0 -50 128 -83 325 -83 303 -1
446 78 252 139 -72 23 -357 29 -448 10z m429 -21 c23 -9 42 -21 42 -27 0 -18
-70 -38 -170 -49 -152 -17 -360 10 -360 47 0 38 92 54 290 50 119 -3 165 -7
198 -21z"/>
<path d="M736 970 c13 -80 46 -171 77 -211 52 -69 103 -88 276 -104 177 -16
217 -33 259 -110 15 -26 15 -3 1 48 -13 50 -68 110 -123 136 -24 11 -90 32
-145 46 -200 51 -270 89 -321 177 -29 51 -30 52 -24 18z"/>
<path d="M2252 966 c-39 -85 -128 -139 -312 -186 -178 -46 -232 -76 -270 -150
-10 -20 -21 -54 -25 -75 l-6 -40 17 33 c37 72 96 96 259 107 147 9 200 27 256
85 34 34 52 65 67 111 33 102 43 177 14 115z"/>
<path d="M1030 580 c20 -37 81 -69 153 -79 81 -11 109 -28 137 -79 l21 -37 -7
45 c-14 101 -59 143 -163 154 -168 19 -153 19 -141 -4z"/>
<path d="M1867 589 c-131 -14 -185 -54 -194 -145 l-4 -49 16 32 c23 44 52 61
130 73 79 13 109 27 149 69 l30 31 -25 -1 c-13 -1 -59 -5 -102 -10z"/>
</g>
</svg>
